<?xml version="1.0" encoding="UTF-8"?>
<svg width="35px" height="32px" viewBox="0 0 35 32" version="1.1" xmlns="http://www.w3.org/2000/svg" xmlns:xlink="http://www.w3.org/1999/xlink">
    <title>C0AB66FC-E472-49E3-B9A8-3348F42B59A3</title>
    <g id="Page-1" stroke="none" stroke-width="1" fill="none" fill-rule="evenodd" stroke-linecap="round" stroke-linejoin="round">
        <g id="1_partenariat" transform="translate(-170.000000, -460.000000)" stroke="#031C3E" stroke-width="2">
            <g id="actualite" transform="translate(171.000000, 461.000000)">
                <path d="M15.8482896,0 C15.1788001,0 14.5179177,0.150880179 13.9144438,0.44076921 L2.00213606,7.8046158 L2.00213606,22.278462 C1.90406776,26.440368 5.19500011,29.895486 9.35675153,30 L22.3398277,30 C26.5015794,29.895486 29.7925091,26.440368 29.6944438,22.278462 L29.6944438,7.8046158 L17.7821354,0.44076921 C17.1786624,0.150880179 16.5177796,0 15.8482896,0 Z" id="Vector-18"></path>
                <path d="M11.5384615,20.4053854 C12.7447926,21.6623923 14.4116345,22.3729915 16.1538462,22.3729915 C17.8960578,22.3729915 19.5628997,21.6623923 20.7692308,20.4053854 M2.30769231,7.44076923 L1.42108547e-14,8.86692308 M30,7.44076923 L32.3076923,8.86692308" id="Vector-19"></path>
            </g>
        </g>
    </g>
</svg>