<?xml version="1.0" encoding="UTF-8"?>
<svg width="31px" height="34px" viewBox="0 0 31 34" version="1.1" xmlns="http://www.w3.org/2000/svg" xmlns:xlink="http://www.w3.org/1999/xlink">
    <title>D9D06C5D-A885-4DDF-80B9-B69FB669EAE8</title>
    <g id="Page-1" stroke="none" stroke-width="1" fill="none" fill-rule="evenodd">
        <g id="1_partenariat" transform="translate(-512.000000, -321.000000)" fill="#031C3E" fill-rule="nonzero">
            <g id="contractulisation" transform="translate(512.000000, 321.000000)">
                <path d="M5.07258065,14.2580645 L20.1532258,14.2580645 C20.5318081,14.2580645 20.8387097,14.0125432 20.8387097,13.7096774 C20.8387097,13.4068116 20.5318081,13.1612903 20.1532258,13.1612903 L5.07258065,13.1612903 C4.69399836,13.1612903 4.38709677,13.4068116 4.38709677,13.7096774 C4.38709677,14.0125432 4.69399836,14.2580645 5.07258065,14.2580645 Z" id="Path"></path>
                <path d="M16.8172043,16.4516129 L5.11827957,16.4516129 C4.71445846,16.4516129 4.38709677,16.6971342 4.38709677,17 C4.38709677,17.3028658 4.71445846,17.5483871 5.11827957,17.5483871 L16.8172043,17.5483871 C17.2210254,17.5483871 17.5483871,17.3028658 17.5483871,17 C17.5483871,16.6971342 17.2210254,16.4516129 16.8172043,16.4516129 Z" id="Path"></path>
                <path d="M5.07258065,10.9677419 L20.1532258,10.9677419 C20.5318081,10.9677419 20.8387097,10.7222207 20.8387097,10.4193548 C20.8387097,10.116489 20.5318081,9.87096774 20.1532258,9.87096774 L5.07258065,9.87096774 C4.69399836,9.87096774 4.38709677,10.116489 4.38709677,10.4193548 C4.38709677,10.7222207 4.69399836,10.9677419 5.07258065,10.9677419 Z" id="Path"></path>
                <path d="M5.07258065,6.58064516 L20.1532258,6.58064516 C20.5318081,6.58064516 20.8387097,6.3351239 20.8387097,6.03225806 C20.8387097,5.72939223 20.5318081,5.48387097 20.1532258,5.48387097 L5.07258065,5.48387097 C4.69399836,5.48387097 4.38709677,5.72939223 4.38709677,6.03225806 C4.38709677,6.3351239 4.69399836,6.58064516 5.07258065,6.58064516 Z" id="Path"></path>
                <path d="M14.6693548,27.9677419 C14.3129032,27.9677419 14.025,26.3225806 12.75,26.3225806 C11.475,26.3225806 11.1802419,27.9677419 10.8237903,27.9677419 C10.4673387,27.9677419 10.1862903,26.3225806 8.91129032,26.3225806 C7.63629032,26.3225806 7.34153226,27.9677419 6.99193548,27.9677419 C6.64233871,27.9677419 6.35443548,26.3225806 5.07258065,26.3225806 C4.69399836,26.3225806 4.38709677,26.6908625 4.38709677,27.1451613 C4.38709677,27.59946 4.69399836,27.9677419 5.07258065,27.9677419 C5.42903226,27.9677419 5.71008065,29.6129032 6.99193548,29.6129032 C8.27379032,29.6129032 8.55483871,27.9677419 8.91129032,27.9677419 C9.26774194,27.9677419 9.54879032,29.6129032 10.8237903,29.6129032 C12.0987903,29.6129032 12.3935484,27.9677419 12.75,27.9677419 C13.1064516,27.9677419 13.3875,29.6129032 14.6693548,29.6129032 C15.0479371,29.6129032 15.3548387,29.2446213 15.3548387,28.7903226 C15.3548387,28.3360238 15.0479371,27.9677419 14.6693548,27.9677419 Z" id="Path"></path>
                <path d="M29.9840415,7.08333333 C30.3691515,7.08333333 30.6813448,6.7662017 30.6813448,6.375 L30.6813448,3.54166667 C30.6813448,1.58565818 29.1203782,0 27.1948284,0 L3.48651646,0 C1.56096659,0 0,1.58565818 0,3.54166667 L0,33.2916667 C0,33.6828684 0.312193317,34 0.697303291,34 L24.4056152,34 C24.7907252,34 25.1029185,33.6828684 25.1029185,33.2916667 L25.1029185,21.9583333 L30.3536123,12.75 C30.8141278,11.9817814 30.8289218,11.0204536 30.3922701,10.237988 C29.9556184,9.45552249 29.1360217,8.97467032 28.2506107,8.98149007 C27.3651997,8.98830983 26.5528753,9.48173164 26.1279543,10.2708333 L25.1029185,12.0416667 L25.1029185,7.08333333 L29.9840415,7.08333333 Z M29.2867382,3.54166667 L29.2867382,5.66666667 L25.1029185,5.66666667 L25.1029185,3.54166667 C25.1029185,2.36806157 26.0394984,1.41666667 27.1948284,1.41666667 C28.3501583,1.41666667 29.2867382,2.36806157 29.2867382,3.54166667 Z M23.7083119,32.5833333 L1.39460658,32.5833333 L1.39460658,3.54166667 C1.39460658,2.36806157 2.33118653,1.41666667 3.48651646,1.41666667 L24.4056152,1.41666667 C23.4363636,2.70583333 23.7083119,2.56416667 23.7083119,14.47125 L18.2832923,24.0195833 C18.1647507,24.225 18.213562,24.0195833 17.9555597,28.2695833 C17.9440143,28.464694 18.0123508,28.6559788 18.1443927,28.7981573 C18.2764347,28.9403357 18.4604442,29.0207688 18.652863,29.0204167 C18.9527035,29.0204167 18.8062698,29.0204167 22.2927862,26.7183333 C22.4740851,26.5979167 22.4043547,26.66875 23.6873928,24.37375 L23.7083119,32.5833333 Z M19.5244922,24.9616667 C20.1249673,25.0505864 20.6690192,25.3700125 21.0446133,25.8541667 L19.4059506,26.9520833 L19.5244922,24.9616667 Z M21.8953233,24.6925 C21.4024637,24.1707839 20.7736572,23.8022725 20.0823348,23.63 L25.7374645,13.7133333 L27.550453,14.7758333 L21.8953233,24.6925 Z M27.334289,10.9225 C27.5211309,10.5935179 27.8665567,10.3907817 28.2404479,10.3906599 C28.6143392,10.3905382 28.9598928,10.5930496 29.1469422,10.9219099 C29.3339916,11.2507703 29.3341194,11.6560179 29.1472776,11.985 L28.2756485,13.5220833 L26.4975251,12.4595833 L27.334289,10.9225 Z" id="Shape"></path>
            </g>
        </g>
    </g>
</svg>