<?xml version="1.0" encoding="UTF-8"?>
<svg width="32px" height="32px" viewBox="0 0 32 32" version="1.1" xmlns="http://www.w3.org/2000/svg" xmlns:xlink="http://www.w3.org/1999/xlink">
    <title>7607DD0D-2F1B-4DB9-B555-019FB0701847</title>
    <g id="Page-1" stroke="none" stroke-width="1" fill="none" fill-rule="evenodd" stroke-linecap="round" stroke-linejoin="round">
        <g id="1_partenariat" transform="translate(-681.000000, -321.000000)" stroke="#031C3E" stroke-width="1.5">
            <g id="deconcentration" transform="translate(682.000000, 322.000000)">
                <path d="M30,23.333571 C30,27.0153378 27.0153378,30 23.333571,30 L6.6664284,30 C2.9846619,30 0,27.0153378 0,23.333571 L0,6.6664284 C0,2.9846619 2.9846619,0 6.6664284,0 L23.333571,0 C27.0153378,0 30,2.9846619 30,6.6664284 L30,23.333571 Z" id="Vector-26"></path>
                <path d="M14.4685819,11.5564842 C15.3014898,10.2424019 15.1411477,8.53149813 14.0785817,7.39505553 C13.0413582,6.28581972 11.3450719,6.11116163 10.1035817,6.98576986 C9.58074552,7.35451628 9.17765327,7.86862658 8.94429599,8.46434121 C8.70553325,9.06958509 8.64312355,9.73008772 8.76429598,10.3693412 C8.88151457,11.0029715 9.17914191,11.589297 9.62143891,12.0579128 C10.0547354,12.5149951 10.6167066,12.8296096 11.2328676,12.9600556 C11.8441997,13.0869528 12.4798438,13.0210676 13.0521531,12.7714843 C13.6350391,12.5170263 14.1283717,12.0938497 14.4685819,11.5564842 L14.4685819,11.5564842 Z" id="Vector-27"></path>
                <path d="M15.5314018,22.1057131 C14.6984939,20.7916308 14.8588361,19.0807271 15.9214018,17.9442845 C16.9586255,16.8350486 18.6549118,16.6603906 19.8964021,17.5349988 C20.419238,17.9037452 20.8223305,18.4178555 21.0556878,19.0135701 C21.2944505,19.618814 21.3568603,20.2793166 21.2356875,20.9185701 C21.118469,21.5522005 20.8208419,22.1385259 20.3785449,22.6071418 C19.9452487,23.0642241 19.3832771,23.3788385 18.7671164,23.5092846 C18.155784,23.6361817 17.5201399,23.5702965 16.9478304,23.3207133 C16.3649446,23.0662553 15.8716121,22.6430786 15.5314018,22.1057131 Z" id="Vector-28"></path>
                <path d="M15,9.72433929 L23.5714286,9.72433929 M8.70214286,9.72433929 L6.42857143,9.72433929 M15,20.2757679 L6.42857143,20.2757679 M21.2978571,20.2757679 L23.5714286,20.2757679" id="Vector-29"></path>
            </g>
        </g>
    </g>
</svg>