<?xml version="1.0" encoding="UTF-8"?>
<svg width="31px" height="29px" viewBox="0 0 31 29" version="1.1" xmlns="http://www.w3.org/2000/svg" xmlns:xlink="http://www.w3.org/1999/xlink">
    <title>0F3D560A-F6DD-4A05-8044-5109561503A5</title>
    <g id="Page-1" stroke="none" stroke-width="1" fill="none" fill-rule="evenodd">
        <g id="1_conventions_casablanca" transform="translate(-459.000000, -275.000000)">
            <g id="convention1" transform="translate(107.000000, 275.000000)">
                <g id="flag_maroc" transform="translate(352.000000, 0.000000)">
                    <polygon id="Rectangle" fill="#D80027" points="3.10317102 9.09480824e-13 27.103171 9.09480824e-13 27.103171 17 3.10317102 17"></polygon>
                    <g id="morocco(3)" transform="translate(3.103171, 5.000000)" fill-rule="nonzero">
                        <circle id="Oval" fill="#D80027" cx="12" cy="12" r="12"></circle>
                        <path d="M19.0921875,9.8484375 L13.6734375,9.8484375 L12,4.696875 L10.3265625,9.8484375 L4.9078125,9.8484375 L9.290625,13.03125 L7.6171875,18.1828125 L12,15 L16.3828125,18.1828125 L14.709375,13.03125 L19.0921875,9.8484375 Z M10.51875,12.6328125 L11.0859375,10.8890625 L12.91875,10.8890625 L13.4859375,12.6328125 L13.4859375,12.6328125 L12.0046875,13.7109375 L10.51875,12.6328125 L10.51875,12.6328125 Z M12.5765625,9.8484375 L11.4234375,9.8484375 L12,8.071875 L12.5765625,9.8484375 Z M14.371875,11.990625 L14.015625,10.89375 L15.88125,10.89375 L14.371875,11.990625 Z M9.9890625,10.89375 L9.6328125,11.990625 L8.1234375,10.89375 L9.9890625,10.89375 Z M9.6,15.4546875 L10.1765625,13.678125 L11.109375,14.3578125 L9.6,15.4546875 Z M12.8859375,14.3578125 L13.81875,13.678125 L14.3953125,15.4546875 L12.8859375,14.3578125 Z" id="Shape" fill="#6DA544"></path>
                    </g>
                    <polygon id="Path-2" fill="#C10023" points="3.10317102 0 0 4 3.10317102 4"></polygon>
                    <polygon id="Path-2" fill="#C10023" points="27.103171 0 27 4 30.103171 4"></polygon>
                </g>
            </g>
        </g>
    </g>
</svg>