<?xml version="1.0" encoding="UTF-8"?>
<svg width="32px" height="32px" viewBox="0 0 32 32" version="1.1" xmlns="http://www.w3.org/2000/svg" xmlns:xlink="http://www.w3.org/1999/xlink">
    <title>AC497A27-BA97-4FB4-8232-0753EE26411A</title>
    <g id="Page-1" stroke="none" stroke-width="1" fill="none" fill-rule="evenodd">
        <g id="1_partenariat" transform="translate(-511.000000, -469.000000)">
            <g id="foire" transform="translate(512.000000, 470.000000)">
                <path d="M0,12.8571429 L0,17.142858 C0,24.2436612 5.7563388,30 12.8571429,30 L17.142858,30 C24.2436612,30 30,24.2436612 30,17.142858 L30,12.8571429 C30,5.7563388 24.2436612,0 17.142858,0 L12.8571429,0 C5.7563388,0 0,5.7563388 0,12.8571429 Z" id="Vector-57" stroke="#031C3E" stroke-width="2" stroke-linecap="round" stroke-linejoin="round"></path>
                <path d="M15.2056338,18.7661972 C15.3502347,18.7661972 15.4619718,18.7267606 15.5408451,18.6478873 C15.6197183,18.5690141 15.6723005,18.457277 15.6985915,18.3126761 C15.6985915,18.1812207 15.7018779,18.0464789 15.7084507,17.9084507 C15.7150235,17.7704225 15.7248826,17.629108 15.7380282,17.484507 C15.7774648,17.0638498 15.9089202,16.67277 16.1323944,16.3112676 C16.3558685,15.9497653 16.6286385,15.6014085 16.9507042,15.2661972 C17.27277,14.9309859 17.5915493,14.5892019 17.9070423,14.2408451 C18.2225352,13.8924883 18.4920188,13.5112676 18.715493,13.0971831 C18.9389671,12.6830986 19.0704225,12.2131455 19.1098592,11.6873239 C19.1361502,11.2535211 19.0704225,10.8197183 18.9126761,10.3859155 C18.7549296,9.95211268 18.5018779,9.55446009 18.1535211,9.19295775 C17.8051643,8.8314554 17.3450704,8.54225352 16.7732394,8.32535211 C16.2014085,8.1084507 15.514554,8 14.7126761,8 C14.0028169,8 13.3619718,8.1084507 12.7901408,8.32535211 C12.2183099,8.54225352 11.7253521,8.83474178 11.3112676,9.2028169 C10.8971831,9.57089202 10.5784038,9.99812207 10.3549296,10.484507 C10.1314554,10.970892 10.0131455,11.4835681 10,12.0225352 C10,12.1539906 10.042723,12.2591549 10.128169,12.3380282 C10.213615,12.4169014 10.315493,12.456338 10.4338028,12.456338 L10.4338028,12.456338 L11.3802817,12.456338 C11.4985915,12.456338 11.6037559,12.4234742 11.6957746,12.3577465 C11.7877934,12.2920188 11.8535211,12.1802817 11.8929577,12.0225352 C12.0507042,11.1680751 12.3760563,10.5600939 12.8690141,10.1985915 C13.3619718,9.8370892 13.9568075,9.65633803 14.6535211,9.65633803 C15.0873239,9.65633803 15.5079812,9.74178404 15.915493,9.91267606 C16.3230047,10.0835681 16.6450704,10.3300469 16.8816901,10.6521127 C17.1183099,10.9741784 17.2103286,11.371831 17.1577465,11.8450704 C17.1051643,12.2131455 16.9638498,12.5615023 16.7338028,12.8901408 C16.5037559,13.2187793 16.2244131,13.5441315 15.8957746,13.8661972 C15.5671362,14.1882629 15.241784,14.5267606 14.9197183,14.8816901 C14.5976526,15.2366197 14.3248826,15.6309859 14.1014085,16.0647887 C13.8779343,16.4985915 13.7530516,16.9981221 13.7267606,17.5633803 L13.7267606,17.5633803 L13.7267606,18.3521127 C13.7267606,18.4835681 13.7661972,18.585446 13.8450704,18.6577465 C13.9239437,18.7300469 14.0225352,18.7661972 14.1408451,18.7661972 L14.1408451,18.7661972 L15.2056338,18.7661972 Z M15.2647887,22 C15.4093897,22 15.5244131,21.957277 15.6098592,21.871831 C15.6953052,21.786385 15.7380282,21.6779343 15.7380282,21.5464789 L15.7380282,21.5464789 L15.7380282,20.343662 C15.7380282,20.2122066 15.6953052,20.1037559 15.6098592,20.0183099 C15.5244131,19.9328638 15.4093897,19.8901408 15.2647887,19.8901408 L15.2647887,19.8901408 L13.9830986,19.8901408 C13.8516432,19.8901408 13.7431925,19.9328638 13.6577465,20.0183099 C13.5723005,20.1037559 13.5295775,20.2122066 13.5295775,20.343662 L13.5295775,20.343662 L13.5295775,21.5464789 C13.5295775,21.6779343 13.5723005,21.786385 13.6577465,21.871831 C13.7431925,21.957277 13.8516432,22 13.9830986,22 L13.9830986,22 L15.2647887,22 Z" id="?" fill="#031C3E" fill-rule="nonzero"></path>
            </g>
        </g>
    </g>
</svg>