<?xml version="1.0" encoding="UTF-8"?>
<svg width="45px" height="28px" viewBox="0 0 45 28" version="1.1" xmlns="http://www.w3.org/2000/svg" xmlns:xlink="http://www.w3.org/1999/xlink">
    <title>AAF21DE1-214A-4348-B0E4-262CB5EC5458</title>
    <g id="Page-1" stroke="none" stroke-width="1" fill="none" fill-rule="evenodd">
        <g id="1_partenariat" transform="translate(-338.000000, -328.000000)" fill="#031C3E" fill-rule="nonzero">
            <path d="M382.220567,343.910742 L379.026005,329.962695 C378.714981,328.604866 377.357065,327.753098 375.999236,328.064035 L373.431823,328.652004 C372.073993,328.963027 371.222226,330.32077 371.533162,331.678686 L371.597339,331.958832 L370.605455,332.390424 C369.813798,332.734747 368.983913,332.687177 368.206095,332.252557 C367.428796,331.818283 366.738767,331.413503 366.13004,331.05638 C363.284644,329.387095 361.717073,328.467604 359.343574,329.355006 C358.676465,329.604448 358.014287,330.091914 357.333858,330.734372 L348.785907,330.734372 C348.633163,329.740153 347.891498,328.889855 346.852995,328.652004 L344.285583,328.064035 C342.927234,327.753098 341.569751,328.604779 341.258814,329.962695 L338.064338,343.910655 C337.914016,344.566693 338.029136,345.243402 338.388421,345.816235 C338.747707,346.389068 339.306874,346.787275 339.962912,346.937424 L342.530325,347.525393 C342.718184,347.568466 342.907687,347.589656 343.096066,347.589656 C343.565368,347.589656 344.027146,347.457584 344.435818,347.201223 C344.898115,346.911304 345.246416,346.491128 345.442665,345.995013 L354.664299,355.113462 C355.235835,355.685171 355.998084,356 356.810585,356 L356.811104,356 C357.623605,356 358.385854,355.684998 358.957476,355.113376 C359.281819,354.789033 359.523563,354.403195 359.671896,353.981635 L360.616382,354.926122 C361.187918,355.497744 361.950167,355.812659 362.762668,355.812573 L362.763187,355.812573 C363.575688,355.812487 364.337937,355.497571 364.909559,354.925949 C365.237535,354.597973 365.480922,354.207205 365.628822,353.780283 C366.170345,354.228568 366.846449,354.472388 367.561734,354.472388 L367.562253,354.472388 C368.374753,354.472301 369.137003,354.157386 369.708625,353.585764 C370.28016,353.014228 370.594989,352.251979 370.595076,351.439478 C370.595076,351.339061 370.590232,351.239423 370.580805,351.140736 C371.316242,351.092474 371.999524,350.784305 372.523057,350.260859 C373.304508,349.479322 373.569604,348.374307 373.319125,347.372995 L375.157068,346.561792 C375.342852,346.812876 375.575687,347.030056 375.848914,347.20131 C376.257759,347.457757 376.719364,347.589743 377.188666,347.589743 C377.377045,347.589743 377.566548,347.568466 377.754407,347.52548 L380.32182,346.937511 C380.977858,346.787275 381.537025,346.389155 381.89631,345.816322 C382.255682,345.243402 382.370803,344.566693 382.220567,343.910742 L382.220567,343.910742 Z M359.94936,330.975251 C361.478616,330.403369 362.441525,330.898014 365.254747,332.548358 C365.870826,332.909806 366.569158,333.319516 367.362371,333.762698 C368.611481,334.460425 370.008404,334.536451 371.295657,333.976591 L371.990356,333.674304 L374.568407,344.930736 L372.429992,345.874531 L364.550274,337.994985 C363.017904,336.462789 360.613182,336.245954 358.831804,337.479669 C356.104815,339.36795 354.301554,340.080381 352.574752,338.534173 C353.825937,337.369911 354.992102,335.988815 356.039946,334.747922 C357.506495,333.011174 358.891829,331.37069 359.94936,330.975251 L359.94936,330.975251 Z M343.516587,345.735798 C343.335214,345.849534 343.122272,345.886293 342.916509,345.839242 L340.349097,345.251273 C340.143506,345.204222 339.967583,345.078377 339.85376,344.897004 C339.74011,344.715631 339.703351,344.502516 339.750489,344.296926 L342.945051,330.34888 C343.029467,329.98034 343.358394,329.730033 343.721572,329.730033 C343.7803,329.730033 343.839806,329.736607 343.899485,329.750186 L346.466897,330.338155 C346.89503,330.436236 347.163586,330.864369 347.065505,331.292502 L343.870856,345.240635 C343.823805,345.446225 343.698046,345.622062 343.516587,345.735798 L343.516587,345.735798 Z M371.299981,349.03761 C371.055038,349.282554 370.727062,349.41748 370.376425,349.417567 C370.025876,349.417653 369.697986,349.282813 369.453129,349.037869 L363.310246,342.894467 C362.972496,342.556718 362.425005,342.556631 362.086997,342.894467 C361.749248,343.232216 361.749248,343.77988 362.086997,344.117629 C362.086997,344.117629 368.455969,350.486515 368.485549,350.516182 C368.730493,350.761039 368.865333,351.088842 368.865333,351.439305 C368.865247,351.789855 368.730406,352.117744 368.485463,352.362601 C368.240519,352.607632 367.912543,352.742558 367.561907,352.742645 C367.56182,352.742645 367.56182,352.742645 367.561734,352.742645 C367.21127,352.742645 366.883468,352.607805 366.638697,352.362947 L360.030489,345.754307 C359.692827,345.416558 359.145336,345.416558 358.80724,345.754307 C358.469491,346.092057 358.469491,346.639721 358.80724,346.97747 L363.708366,351.878941 C363.939385,352.121204 364.066181,352.439752 364.066181,352.779663 C364.066095,353.130213 363.931254,353.458102 363.686311,353.70296 C363.441367,353.94799 363.113391,354.082917 362.762755,354.082917 C362.762668,354.082917 362.762668,354.082917 362.762582,354.082917 C362.412118,354.082917 362.084402,353.948076 361.839545,353.703219 L356.473441,348.336943 C356.135778,347.999193 355.588288,347.999193 355.250192,348.336943 C354.912443,348.674692 354.912443,349.222356 355.250192,349.560105 L357.751872,352.061784 C357.985571,352.304566 358.114011,352.625016 358.113925,352.96709 C358.113925,353.31764 357.978998,353.645529 357.734141,353.890387 C357.489197,354.135417 357.161221,354.27043 356.810585,354.27043 C356.810498,354.27043 356.810498,354.27043 356.810412,354.27043 C356.459949,354.27043 356.132232,354.13559 355.883915,353.887186 L345.921482,344.035722 L348.571754,332.464202 L355.712835,332.464202 C355.389271,332.837585 355.058527,333.229046 354.71827,333.631923 C353.467344,335.113262 352.17395,336.645026 350.775037,337.817937 C350.409957,338.124117 350.361262,338.667889 350.666058,339.034093 C351.938953,340.562917 353.293755,341.098472 354.595365,341.098385 C356.644262,341.098299 358.561259,339.771087 359.816596,338.901761 C360.927752,338.132333 362.371294,338.26233 363.327025,339.218147 L371.299981,347.191017 C371.809157,347.700106 371.80907,348.528521 371.299981,349.03761 Z M380.430972,344.897004 C380.317236,345.078377 380.141226,345.204222 379.935635,345.251273 L377.368223,345.839242 C377.162373,345.886293 376.949431,345.849534 376.768145,345.735798 C376.586686,345.622062 376.460927,345.446138 376.413876,345.240548 L373.2194,331.292502 C373.121319,330.864369 373.389875,330.436236 373.818007,330.338155 L376.38542,329.750186 C376.813207,329.652278 377.241772,329.920747 377.339767,330.34888 L380.534416,344.297013 C380.581467,344.502516 380.544708,344.715631 380.430972,344.897004 L380.430972,344.897004 Z" id="partenariat"></path>
        </g>
    </g>
</svg>