<?xml version="1.0" encoding="UTF-8"?>
<svg width="37px" height="32px" viewBox="0 0 37 32" version="1.1" xmlns="http://www.w3.org/2000/svg" xmlns:xlink="http://www.w3.org/1999/xlink">
    <title>C8B6E178-A445-4E49-939D-1370E0B69CE2</title>
    <g id="Page-1" stroke="none" stroke-width="1" fill="none" fill-rule="evenodd" stroke-linecap="round" stroke-linejoin="round">
        <g id="1_partenariat" transform="translate(-169.000000, -323.000000)" stroke="#031C3E" stroke-width="2">
            <path d="M183.532009,339.939074 L196.672168,332.438983 M183.532009,339.939074 L188.7135,341.312662 M183.532008,339.939073 L184.920597,334.81544 M196.672167,332.438983 L204.290116,334.153289 M196.672167,332.438983 L198.907194,324.857463 M200.345068,339.000492 C200.345068,340.31193 200.171648,341.617609 199.828634,342.883395 C198.776577,346.738851 196.231764,350.016261 192.757119,351.990648 C187.4362,355.023195 180.820235,354.59421 175.935488,350.89992 C174.358968,349.704051 173.033683,348.2091 172.035441,346.500582 C169.498906,342.168498 169.322371,336.848255 171.56615,332.357553 C172.901528,329.692937 174.997011,327.484104 177.587651,326.010334 C182.289679,323.329889 188.057234,323.329889 192.759263,326.010334 M194.655715,339.000491 C194.655504,339.819817 194.546698,340.635501 194.33214,341.426235 C193.675215,343.836294 192.085078,345.885272 189.913515,347.119875 C186.588108,349.014985 182.453463,348.746983 179.400531,346.438438 C178.41486,345.691188 177.586191,344.756932 176.961929,343.68912 C175.378098,340.9827 175.267677,337.659601 176.668354,334.854012 C177.502912,333.186551 178.813147,331.803981 180.4334,330.881107 C183.372225,329.206045 186.976833,329.206045 189.915658,330.881107" id="strategie"></path>
        </g>
    </g>
</svg>