<?xml version="1.0" encoding="UTF-8"?>
<svg width="32px" height="32px" viewBox="0 0 32 32" version="1.1" xmlns="http://www.w3.org/2000/svg" xmlns:xlink="http://www.w3.org/1999/xlink">
    <title>453E6438-4C1E-47F7-9FA7-1325338EA4FD</title>
    <g id="Page-1" stroke="none" stroke-width="1" fill="none" fill-rule="evenodd" stroke-linecap="round" stroke-linejoin="round">
        <g id="1_partenariat" transform="translate(-681.000000, -468.000000)" stroke="#031C3E" stroke-width="2">
            <g id="tableau" transform="translate(682.000000, 469.000000)">
                <path d="M0,28.3092855 L0,10.1507145 C-0.00590399592,9.2236992 0.740170895,8.4670758 1.66717812,8.46 L8.33360654,8.46 C9.26061383,8.4670758 10.0066892,9.2236992 10.0007498,10.1507145 L10.0007498,1.6907142 C9.99480616,0.76452876 10.7395813,0.0082506129 11.6657495,0 L18.3343212,0 C19.2613282,0.0070756242 20.0074024,0.76369911 20.0014641,1.6907142 L20.0014641,6.7671426 C19.9955256,5.8401276 20.7415998,5.0835039 21.6686071,5.0764284 L28.3350356,5.0764284 C29.261202,5.0846793 30.0059777,5.8409571 30.0000707,6.7671426 L30.0000707,28.3092855 C30.0059747,29.236302 29.2599,29.9929242 28.3328933,30 L1.66717812,30 C0.740170895,29.9929242 -0.00590399592,29.236302 0,28.3092855 L0,28.3092855 Z" id="Vector-29"></path>
                <path d="M10.0007464,29.9999121 L10.0007464,10.1506264 M19.9993179,29.9999121 L19.9993179,6.767055" id="Vector-30"></path>
            </g>
        </g>
    </g>
</svg>